#N canvas 660 130 450 300 10;
#X obj 82 65 osc~;
#X obj 84 111 *~;
#X obj 87 157 dac~;
#X obj 242 -38 vsl 15 128 0 127 0 0 empty empty empty 0 -9 0 10 -262144
-1 -1 0 1;
#X obj 52 -78 bng 15 250 50 0 empty empty empty 17 7 0 10 -262144 -1
-1;
#X floatatom 85 33 5 0 0 0 - - -, f 5;
#X obj 88 -27 random 800;
#X obj 88 3 + 200;
#X obj 92 -54 metro;
#X connect 0 0 1 0;
#X connect 1 0 2 0;
#X connect 3 0 1 1;
#X connect 4 0 8 0;
#X connect 5 0 0 0;
#X connect 6 0 7 0;
#X connect 7 0 5 0;
#X connect 8 0 6 0;
